<?xml version="1.0"?>
<svg xmlns="http://www.w3.org/2000/svg" height="512px" viewBox="0 0 464 464" width="512px" class=""><g><path d="m232 0v32l48-16zm0 0" fill="#ff6243" data-original="#FF6243" class="" style="fill:#8D8D8D" data-old_color="#8C8B8B"/><path d="m136 96h192v368h-192zm0 0" fill="#3d9ae2" data-original="#3D9AE2" class="" style="fill:#D3D3D3" data-old_color="#D3D3D1"/><path d="m328 224h136v240h-136zm0 0" fill="#5aaae7" data-original="#5AAAE7" class="" style="fill:#E0E0E4" data-old_color="#E3E3E5"/><g fill="#bddbff"><path d="m352 272h32v32h-32zm0 0" data-original="#000000" class="" style="fill:#EFEEEE" data-old_color="#F0F0F0"/><path d="m408 272h32v32h-32zm0 0" data-original="#000000" class="" style="fill:#EFEEEE" data-old_color="#F0F0F0"/><path d="m160 144h32v32h-32zm0 0" data-original="#000000" class="" style="fill:#EFEEEE" data-old_color="#F0F0F0"/><path d="m216 144h32v32h-32zm0 0" data-original="#000000" class="" style="fill:#EFEEEE" data-old_color="#F0F0F0"/><path d="m272 144h32v32h-32zm0 0" data-original="#000000" class="" style="fill:#EFEEEE" data-old_color="#F0F0F0"/><path d="m160 208h32v32h-32zm0 0" data-original="#000000" class="" style="fill:#EFEEEE" data-old_color="#F0F0F0"/><path d="m216 208h32v32h-32zm0 0" data-original="#000000" class="" style="fill:#EFEEEE" data-old_color="#F0F0F0"/><path d="m272 208h32v32h-32zm0 0" data-original="#000000" class="" style="fill:#EFEEEE" data-old_color="#F0F0F0"/><path d="m160 272h32v32h-32zm0 0" data-original="#000000" class="" style="fill:#EFEEEE" data-old_color="#F0F0F0"/><path d="m216 272h32v32h-32zm0 0" data-original="#000000" class="" style="fill:#EFEEEE" data-old_color="#F0F0F0"/><path d="m272 272h32v32h-32zm0 0" data-original="#000000" class="" style="fill:#EFEEEE" data-old_color="#F0F0F0"/><path d="m352 328h32v32h-32zm0 0" data-original="#000000" class="" style="fill:#EFEEEE" data-old_color="#F0F0F0"/><path d="m408 328h32v32h-32zm0 0" data-original="#000000" class="" style="fill:#EFEEEE" data-old_color="#F0F0F0"/></g><path d="m0 224h136v240h-136zm0 0" fill="#5aaae7" data-original="#5AAAE7" class="" style="fill:#E0E0E4" data-old_color="#E3E3E5"/><path d="m80 272h32v32h-32zm0 0" fill="#bddbff" data-original="#BDDBFF" class="" style="fill:#F0F0F0" data-old_color="#F2F1F1"/><path d="m24 272h32v32h-32zm0 0" fill="#bddbff" data-original="#BDDBFF" class="" style="fill:#F0F0F0" data-old_color="#F2F1F1"/><path d="m80 328h32v32h-32zm0 0" fill="#bddbff" data-original="#BDDBFF" class="" style="fill:#F0F0F0" data-old_color="#F2F1F1"/><path d="m24 328h32v32h-32zm0 0" fill="#bddbff" data-original="#BDDBFF" class="" style="fill:#F0F0F0" data-old_color="#F2F1F1"/><path d="m184 352h48v112h-48zm0 0" fill="#e6e7e8" data-original="#E6E7E8" class="active-path" style="fill:#E7E7E7" data-old_color="#e7e7e7"/><path d="m232 352h48v112h-48zm0 0" fill="#d1d3d4" data-original="#D1D3D4" class="" style="fill:#EEF0F0" data-old_color="#EFF2F2"/><path d="m136 96h192v16h-192zm0 0" fill="#378bcc" data-original="#378BCC" class="" style="fill:#B3B2B2" data-old_color="#C0C0C0"/><path d="m224 0h16v64h-16zm0 0" fill="#ff9811" data-original="#FF9811" class="" style="fill:#CCCBCB" data-old_color="#CACACA"/><path d="m344 96v-32h-224v32zm0 0" fill="#1e81ce" data-original="#1E81CE" class="" style="fill:#DAD9D9" data-old_color="#D8D7D7"/></g> </svg>
